{
    "asset" : {
        "generator" : "Khronos glTF Blender I/O v0.9.36",
        "version" : "2.0"
    },
    "scene" : 0,
    "scenes" : [
        {
            "name" : "Scene",
            "nodes" : [
                0,
                1,
                2
            ]
        }
    ],
    "nodes" : [
        {
            "name" : "Text",
            "rotation" : [
                0.7071067690849304,
                0,
                0,
                0.7071067690849304
            ],
            "scale" : [
                0.34617459774017334,
                0.34617459774017334,
                0.34617459774017334
            ],
            "translation" : [
                -3.681630849838257,
                0.07439771294593811,
                0.8430150747299194
            ]
        },
        {
            "mesh" : 0,
            "name" : "lingote.001",
            "translation" : [
                -5.120419979095459,
                -0.608683168888092,
                0
            ]
        },
        {
            "mesh" : 1,
            "name" : "Cylinder.001",
            "rotation" : [
                0.7071067690849304,
                0,
                0,
                0.7071067690849304
            ],
            "translation" : [
                -2.4622013568878174,
                1.3663181066513062,
                0.4135594069957733
            ]
        }
    ],
    "materials" : [
        {
            "doubleSided" : true,
            "name" : "Material.001",
            "pbrMetallicRoughness" : {
                "baseColorTexture" : {
                    "index" : 0,
                    "texCoord" : 0
                },
                "metallicFactor" : 1,
                "roughnessFactor" : 0.5
            }
        },
        {
            "doubleSided" : true,
            "name" : "Material.007",
            "pbrMetallicRoughness" : {
                "baseColorFactor" : [
                    0.8000000715255737,
                    0.6488125324249268,
                    0.041352517902851105,
                    1
                ],
                "metallicFactor" : 0.395061731338501,
                "roughnessFactor" : 0.5
            }
        }
    ],
    "meshes" : [
        {
            "name" : "Cube.005",
            "primitives" : [
                {
                    "attributes" : {
                        "POSITION" : 0,
                        "NORMAL" : 1
                    },
                    "indices" : 2,
                    "material" : 0
                }
            ]
        },
        {
            "name" : "Cylinder.004",
            "primitives" : [
                {
                    "attributes" : {
                        "POSITION" : 3,
                        "NORMAL" : 4
                    },
                    "indices" : 5,
                    "material" : 1
                }
            ]
        }
    ],
    "textures" : [
        {
            "source" : 0
        }
    ],
    "images" : [
        {
            "bufferView" : 3,
            "mimeType" : "image/jpeg",
            "name" : "dadad"
        }
    ],
    "accessors" : [
        {
            "bufferView" : 0,
            "componentType" : 5126,
            "count" : 2082,
            "max" : [
                7.300832748413086,
                2.9082863330841064,
                0.8297387957572937
            ],
            "min" : [
                -2.0280094146728516,
                -0.33300334215164185,
                -1.3979359865188599
            ],
            "type" : "VEC3"
        },
        {
            "bufferView" : 1,
            "componentType" : 5126,
            "count" : 2082,
            "type" : "VEC3"
        },
        {
            "bufferView" : 2,
            "componentType" : 5123,
            "count" : 11628,
            "type" : "SCALAR"
        },
        {
            "bufferView" : 4,
            "componentType" : 5126,
            "count" : 884,
            "max" : [
                0.6530325412750244,
                0.0016006529331207275,
                0.07923311740159988
            ],
            "min" : [
                -0.0746733769774437,
                -0.10964621603488922,
                -0.7436995506286621
            ],
            "type" : "VEC3"
        },
        {
            "bufferView" : 5,
            "componentType" : 5126,
            "count" : 884,
            "type" : "VEC3"
        },
        {
            "bufferView" : 6,
            "componentType" : 5123,
            "count" : 1656,
            "type" : "SCALAR"
        }
    ],
    "bufferViews" : [
        {
            "buffer" : 0,
            "byteLength" : 24984,
            "byteOffset" : 0
        },
        {
            "buffer" : 0,
            "byteLength" : 24984,
            "byteOffset" : 24984
        },
        {
            "buffer" : 0,
            "byteLength" : 23256,
            "byteOffset" : 49968
        },
        {
            "buffer" : 0,
            "byteLength" : 2394,
            "byteOffset" : 73224
        },
        {
            "buffer" : 0,
            "byteLength" : 10608,
            "byteOffset" : 75620
        },
        {
            "buffer" : 0,
            "byteLength" : 10608,
            "byteOffset" : 86228
        },
        {
            "buffer" : 0,
            "byteLength" : 3312,
            "byteOffset" : 96836
        }
    ],
    "buffers" : [
        {
            "byteLength" : 100148,
            "uri" : "data:application/octet-stream;base64,"
        }
    ]
}
