{
    "asset" : {
        "generator" : "Khronos glTF Blender I/O v0.9.36",
        "version" : "2.0"
    },
    "scene" : 0,
    "scenes" : [
        {
            "name" : "Scene",
            "nodes" : [
                0,
                1,
                2,
                3,
                4
            ]
        }
    ],
    "nodes" : [
        {
            "name" : "Light",
            "rotation" : [
                0.16907575726509094,
                0.7558803558349609,
                -0.27217137813568115,
                0.570947527885437
            ],
            "translation" : [
                4.076245307922363,
                5.903861999511719,
                -1.0054539442062378
            ]
        },
        {
            "name" : "Camera",
            "rotation" : [
                0.483536034822464,
                0.33687159419059753,
                -0.20870360732078552,
                0.7804827094078064
            ],
            "translation" : [
                7.358891487121582,
                4.958309173583984,
                6.925790786743164
            ]
        },
        {
            "name" : "Text",
            "rotation" : [
                1,
                0,
                0,
                -1.3435885648505064e-07
            ],
            "scale" : [
                0.34617459774017334,
                0.3461746573448181,
                0.3461746573448181
            ],
            "translation" : [
                -3.681630849838257,
                0.07439760863780975,
                0.843015193939209
            ]
        },
        {
            "mesh" : 0,
            "name" : "lingote.001",
            "rotation" : [
                0.7071068286895752,
                0,
                0,
                0.7071067094802856
            ],
            "translation" : [
                -2.7373149394989014,
                -0.6086832284927368,
                0
            ]
        },
        {
            "mesh" : 1,
            "name" : "Cylinder.001",
            "rotation" : [
                1,
                0,
                0,
                -1.3435884227419592e-07
            ],
            "translation" : [
                -0.05480837821960449,
                1.3663182258605957,
                0.4135596454143524
            ]
        }
    ],
    "materials" : [
        {
            "doubleSided" : true,
            "name" : "Material.001",
            "pbrMetallicRoughness" : {
                "baseColorTexture" : {
                    "index" : 0,
                    "texCoord" : 0
                },
                "metallicFactor" : 1,
                "roughnessFactor" : 0.5
            }
        },
        {
            "doubleSided" : true,
            "name" : "Material.007",
            "pbrMetallicRoughness" : {
                "baseColorFactor" : [
                    0.8000000715255737,
                    0.6488125324249268,
                    0.041352517902851105,
                    1
                ],
                "metallicFactor" : 0.395061731338501,
                "roughnessFactor" : 0.5
            }
        }
    ],
    "meshes" : [
        {
            "name" : "Cube.005",
            "primitives" : [
                {
                    "attributes" : {
                        "POSITION" : 0,
                        "NORMAL" : 1
                    },
                    "indices" : 2,
                    "material" : 0
                }
            ]
        },
        {
            "name" : "Cylinder.004",
            "primitives" : [
                {
                    "attributes" : {
                        "POSITION" : 3,
                        "NORMAL" : 4
                    },
                    "indices" : 5,
                    "material" : 1
                }
            ]
        }
    ],
    "textures" : [
        {
            "source" : 0
        }
    ],
    "images" : [
        {
            "bufferView" : 3,
            "mimeType" : "image/png",
            "name" : "Image_0"
        }
    ],
    "accessors" : [
        {
            "bufferView" : 0,
            "componentType" : 5126,
            "count" : 1954,
            "max" : [
                7.300832748413086,
                0.8297387957572937,
                0.33300334215164185
            ],
            "min" : [
                -2.0280094146728516,
                -1.3979359865188599,
                -2.9082863330841064
            ],
            "type" : "VEC3"
        },
        {
            "bufferView" : 1,
            "componentType" : 5126,
            "count" : 1954,
            "type" : "VEC3"
        },
        {
            "bufferView" : 2,
            "componentType" : 5123,
            "count" : 10860,
            "type" : "SCALAR"
        },
        {
            "bufferView" : 4,
            "componentType" : 5126,
            "count" : 1265,
            "max" : [
                0.6530325412750244,
                0.07923311740159988,
                0.10964621603488922
            ],
            "min" : [
                -0.0746733769774437,
                -0.7436995506286621,
                -0.0016006529331207275
            ],
            "type" : "VEC3"
        },
        {
            "bufferView" : 5,
            "componentType" : 5126,
            "count" : 1265,
            "type" : "VEC3"
        },
        {
            "bufferView" : 6,
            "componentType" : 5123,
            "count" : 1656,
            "type" : "SCALAR"
        }
    ],
    "bufferViews" : [
        {
            "buffer" : 0,
            "byteLength" : 23448,
            "byteOffset" : 0
        },
        {
            "buffer" : 0,
            "byteLength" : 23448,
            "byteOffset" : 23448
        },
        {
            "buffer" : 0,
            "byteLength" : 21720,
            "byteOffset" : 46896
        },
        {
            "buffer" : 0,
            "byteLength" : 2077,
            "byteOffset" : 68616
        },
        {
            "buffer" : 0,
            "byteLength" : 15180,
            "byteOffset" : 70696
        },
        {
            "buffer" : 0,
            "byteLength" : 15180,
            "byteOffset" : 85876
        },
        {
            "buffer" : 0,
            "byteLength" : 3312,
            "byteOffset" : 101056
        }
    ],
    "buffers" : [
        {
            "byteLength" : 104368,
            "uri" : "data:application/octet-stream;base64,"
        }
    ]
}
